<svg width="88" height="35" fill="none" xmlns="http://www.w3.org/2000/svg"><path fill-rule="evenodd" clip-rule="evenodd" d="M28.583 4.47H44L36.29 0l-7.708 4.47z" fill="#fff"/><path fill-rule="evenodd" clip-rule="evenodd" d="M28.583 4.469v8.955l7.708 4.47-7.708-13.425zm7.708 13.425L44 13.424V4.47l-7.708 13.425zM44 13.425l7.708 4.47 7.708-4.47H44zM51.708 0L44 4.47v8.955L51.708 0zm7.708 13.425V4.469L51.708 0l7.708 13.425z" fill="#fff"/><path d="M21.608 21.241l-5.302 13.425h3.732l3.575-9.955 3.575 9.955h3.733l-5.302-13.425h-4.011zm29.855-.333c-4.29 0-7.446 2.77-7.446 7.046 0 4.346 3.087 7.046 7.446 7.046 4.36 0 7.447-2.699 7.447-7.046s-3.087-7.046-7.447-7.046zm0 11.112c-2.302 0-3.906-1.665-3.906-4.066 0-2.402 1.604-4.066 3.906-4.066 2.372 0 3.907 1.594 3.907 4.066 0 2.418-1.57 4.066-3.907 4.066zM5.825 21.241L0 34.666h3.994l5.476-3.19h-4.5l2.669-6.922 3.924 10.112h3.732L9.47 21.241H5.825zm31.722 0h-5.546v13.425h3.523V24.202h1.744c1.256 0 2.355.649 2.355 2.051 0 1.42-1.1 2.05-2.355 2.05h-.942l1.604 2.7c2.581 0 5.076-1.613 5.076-4.96 0-3.366-2.46-4.802-5.46-4.802h.001zm44.628 0H78.53l-5.825 13.425h3.732l3.924-10.112 2.686 6.923H78.53l5.494 3.19H88L82.175 21.24zm-14.823 2.647a7.44 7.44 0 013.418.894l1.15-2.664a9.392 9.392 0 00-4.516-1.227c-4.779 0-7.325 3.418-7.325 7.046 0 3.978 1.465 7.046 7.325 7.046a9.153 9.153 0 004.517-1.227l-1.151-2.664a7.23 7.23 0 01-3.418.894 4.032 4.032 0 01-2.658-1.288 4.071 4.071 0 010-5.521 4.032 4.032 0 012.658-1.288v-.001z" fill="#fff"/></svg>