<svg width="133" height="60" viewBox="0 0 133 60" fill="none" xmlns="http://www.w3.org/2000/svg">
<path d="M97.4897 19.3545H107.182V21.5121H106.497C106.467 21.2085 106.325 20.9271 106.099 20.7225C105.872 20.5179 105.578 20.4048 105.273 20.4051H103.579V30.3863H101.182V20.4051H99.432C99.1254 20.3993 98.8281 20.5106 98.6006 20.7162C98.3731 20.9219 98.2326 21.2065 98.2075 21.5121H97.5038L97.4897 19.3545Z" fill="white"/>
<path d="M117.758 19.3545H119.508V30.3863H117.162V22.68L111.382 30.3863H109.632V21.3807C109.652 21.0449 109.551 20.713 109.347 20.4454C109.143 20.1778 108.85 19.9921 108.521 19.922V19.3545H111.964V27.1171L117.758 19.3545Z" fill="white"/>
<path d="M67.0888 30.3863H64.0533L61.8906 26.301C61.8906 26.301 61.2478 25.0721 60.5488 25.0721H59.6762V30.3863H57.2788V21.3807C57.3004 21.0415 57.1915 20.7067 56.9743 20.4451C56.7572 20.1835 56.4481 20.0148 56.1106 19.9736V19.3545H59.6762V23.9605H60.7224C60.997 23.9022 61.2551 23.783 61.4776 23.6117C61.7001 23.4404 61.8813 23.2214 62.0078 22.9708C63.8844 19.9361 63.6452 19.3545 64.4615 19.3545H66.8073V20.1143C65.1746 20.1143 64.7102 23.4398 63.1291 24.4905C63.8938 24.7813 64.1847 25.4802 65.8737 28.5758C65.8737 28.5758 66.2865 29.6265 67.1028 29.6265L67.0888 30.3863Z" fill="white"/>
<path d="M132.301 27.9892C131.755 28.7849 131.023 29.4351 130.169 29.8831C129.314 30.3311 128.363 30.5633 127.398 30.5596C124.475 30.5596 121.675 28.2847 121.675 25.3063V24.6637C121.675 21.4508 124.241 19.1807 127.398 19.1807C128.138 19.1843 128.87 19.3337 129.552 19.6203C130.234 19.9069 130.852 20.325 131.373 20.8507C131.893 21.3765 132.304 21.9996 132.583 22.6845C132.863 23.3693 133.004 24.1024 133 24.842H124.555V26.6478C124.555 28.2238 125.836 29.5089 127.708 29.5089C128.394 29.5158 129.074 29.373 129.7 29.0902C130.325 28.8075 130.881 28.3918 131.33 27.872L132.301 27.9892ZM124.522 23.7257H130.241V23.1441C130.211 22.4059 129.897 21.7079 129.364 21.1962C128.831 20.6845 128.121 20.3987 127.382 20.3987C126.643 20.3987 125.933 20.6845 125.4 21.1962C124.867 21.7079 124.552 22.4059 124.522 23.1441V23.7257Z" fill="white"/>
<path d="M77.5413 26.5915C77.5712 27.2948 77.3258 27.9821 76.8572 28.5075C76.3886 29.0329 75.7336 29.3551 75.0313 29.4057H74.8015C73.4597 29.4057 72.2868 28.4161 72.1132 27.3654V22.6234C72.2136 21.9787 72.5382 21.3901 73.0299 20.9611C73.5216 20.5321 74.149 20.2903 74.8015 20.2782H75.2706C75.2706 20.2782 77.4897 20.3955 77.546 23.0925L77.5413 26.5915ZM75.3269 19.1807C73.9804 19.1807 72.695 19.7623 72.1132 20.5878V19.3542H68.6086V19.9968C68.9331 20.0567 69.2248 20.2324 69.4294 20.4912C69.6339 20.7501 69.7374 21.0745 69.7205 21.4039V35.4048H72.1132V29.2181C72.4913 29.6487 72.9588 29.9918 73.483 30.2234C74.0072 30.4551 74.5756 30.5698 75.1486 30.5596C78.2403 30.5033 80.3468 28.1112 80.3468 25.1328V24.4292C80.3468 21.221 78.3576 19.1807 75.3269 19.1807Z" fill="white"/>
<path d="M41.9804 26.5402C41.9812 26.9363 41.9025 27.3285 41.7491 27.6937C41.5957 28.0588 41.3707 28.3896 41.0873 28.6663C40.8039 28.9431 40.4679 29.1603 40.0991 29.3051C39.7304 29.4498 39.3364 29.5193 38.9403 29.5092C38.548 29.5169 38.1582 29.4453 37.7942 29.2989C37.4302 29.1524 37.0994 28.9341 36.8217 28.6569C36.5441 28.3797 36.3252 28.0494 36.1781 27.6857C36.031 27.322 35.9589 26.9324 35.9659 26.5402V23.0271C36.0159 22.2587 36.3585 21.5387 36.9232 21.015C37.4879 20.4914 38.2318 20.2039 39.002 20.2117C39.7722 20.2195 40.5101 20.522 41.0641 21.057C41.618 21.592 41.946 22.3188 41.9804 23.0881V26.5402ZM38.9403 19.1763C34.793 19.1763 33.0994 22.3892 33.0994 24.4905V25.4286C33.0994 27.877 35.4967 30.588 38.9403 30.588C42.1493 30.588 44.8376 28.1959 44.8376 25.3911V24.6031C44.8376 21.7888 42.6185 19.1763 38.9403 19.1763Z" fill="white"/>
<path d="M95.8569 19.3545H92.3523V19.9971C92.691 20.0551 92.9968 20.235 93.2119 20.5028C93.4271 20.7707 93.5369 21.1079 93.5205 21.4511V30.3863H95.8662L95.8569 19.3545Z" fill="white"/>
<path d="M85.5776 29.2749V24.6642H87.6231C87.8979 24.668 88.1691 24.7279 88.42 24.8402C88.6708 24.9525 88.8961 25.1149 89.0819 25.3173C89.2678 25.5198 89.4102 25.7581 89.5006 26.0177C89.591 26.2772 89.6274 26.5524 89.6076 26.8265V27.2956C89.5783 27.8227 89.3516 28.3195 88.9726 28.6871C88.5935 29.0547 88.09 29.2663 87.5621 29.2796L85.5776 29.2749ZM85.5776 23.5573V19.3359H82.073V19.9785C82.3956 20.0328 82.6848 20.2094 82.8806 20.4715C83.0763 20.7336 83.1634 21.061 83.1239 21.3856V30.3865H88.5567C90.6585 30.3865 92.1738 29.1014 92.1738 27.2909V26.7702C92.1738 24.7815 90.7148 23.5573 88.4206 23.5573H85.5776Z" fill="white"/>
<path d="M45.249 19.3545H54.9417V21.5121H54.238C54.2087 21.2081 54.0669 20.9261 53.8404 20.7213C53.6138 20.5165 53.3189 20.4037 53.0135 20.4051H51.3199V30.3863H48.9272V20.4051H47.1726C46.8659 20.3993 46.5686 20.5106 46.3411 20.7162C46.1136 20.9219 45.9731 21.2065 45.9481 21.5121H45.249V19.3545Z" fill="white"/>
<path d="M21.581 25.5131C21.6103 27.0033 21.2326 28.4734 20.4886 29.7651C19.7446 31.0568 18.6625 32.1213 17.3586 32.8442L16.7581 33.1303C16.5607 33.2206 16.3465 33.2685 16.1295 33.271C15.9455 33.2828 15.7618 33.2456 15.5969 33.1632C15.4321 33.0808 15.2921 32.9561 15.1912 32.8019C15.038 32.5402 14.9878 32.2309 15.0504 31.9342C15.0853 31.7805 15.1522 31.6359 15.2468 31.5099C15.3414 31.3838 15.4615 31.279 15.5993 31.2025C16.365 30.8454 17.0118 30.2757 17.4626 29.5614C17.9135 28.847 18.1494 28.0181 18.1421 27.1735V22.5862C18.1503 21.7432 17.9152 20.9157 17.4651 20.2028C17.0149 19.4899 16.3688 18.9218 15.604 18.5666C15.4626 18.4899 15.339 18.3842 15.2412 18.2565C15.1434 18.1288 15.0736 17.982 15.0363 17.8255C14.9737 17.5288 15.0239 17.2194 15.1771 16.9578C15.2751 16.7992 15.4139 16.6699 15.5789 16.5833C15.7439 16.4967 15.9292 16.4559 16.1154 16.4653C16.3327 16.4654 16.5474 16.5134 16.744 16.606L17.3305 16.8874C18.6393 17.6081 19.7267 18.672 20.4757 19.9646C21.2247 21.2572 21.6068 22.7296 21.581 24.2232V25.5131ZM10.1618 31.1838C10.3002 31.2596 10.4208 31.3641 10.5154 31.4903C10.6101 31.6165 10.6767 31.7614 10.7108 31.9155C10.7777 32.212 10.7272 32.523 10.57 32.7832C10.4698 32.9381 10.3299 33.0633 10.1649 33.1458C9.99988 33.2283 9.81576 33.265 9.6317 33.2522C9.41618 33.2493 9.20366 33.2013 9.00773 33.1115L8.40252 32.8254C7.09712 32.1072 6.01212 31.0469 5.26406 29.7586C4.51601 28.4703 4.13318 27.0025 4.15669 25.5131V24.2232C4.13454 22.7258 4.52233 21.2508 5.27812 19.9578C6.03392 18.6649 7.12894 17.6031 8.44475 16.8874L9.03588 16.606C9.23105 16.5139 9.44406 16.4659 9.65985 16.4653C9.84602 16.4559 10.0313 16.4967 10.1963 16.5833C10.3614 16.6699 10.5001 16.7992 10.5982 16.9578C10.7558 17.2178 10.8063 17.5289 10.7389 17.8255C10.7003 17.9852 10.6269 18.1345 10.5239 18.2626C10.4209 18.3907 10.2908 18.4945 10.1431 18.5666C9.38218 18.925 8.74025 19.4943 8.29363 20.2069C7.84701 20.9195 7.61449 21.7454 7.62373 22.5862V27.1547C7.61609 27.9988 7.85125 28.8274 8.30124 29.5417C8.75122 30.256 9.39705 30.826 10.1618 31.1838ZM12.8735 12C10.3274 12 7.83843 12.7548 5.72139 14.1691C3.60435 15.5833 1.95431 17.5934 0.979946 19.9452C0.00557785 22.2969 -0.249361 24.8847 0.247367 27.3814C0.744096 29.878 1.97018 32.1713 3.77058 33.9713C5.57097 35.7712 7.86482 36.997 10.362 37.4936C12.8593 37.9902 15.4477 37.7354 17.8 36.7612C20.1524 35.7871 22.1629 34.1375 23.5775 32.0209C24.9921 29.9044 25.7471 27.416 25.7471 24.8705C25.7471 21.457 24.3908 18.1834 21.9765 15.7697C19.5623 13.356 16.2878 12 12.8735 12" fill="white"/>
<path d="M35.7739 46.9293H33.9958V39.5747H37.8007L37.9508 40.5128H34.9951V42.5813H35.9334C37.491 42.5813 38.4293 43.3364 38.4293 44.7013C38.4293 46.2022 37.3644 46.9527 35.7646 46.9527L35.7739 46.9293ZM35.8912 43.4255H34.9951V46.0287H35.8255C36.8295 46.0287 37.4254 45.6113 37.4254 44.6966C37.4254 43.8524 36.8905 43.4255 35.8912 43.4255Z" fill="white"/>
<path d="M42.4204 39.5425H43.4244L46.2393 46.7892L45.2494 47.0002L44.3814 44.7207H41.407L40.586 46.9299H39.5398L42.4204 39.5425ZM41.726 43.8389H44.0718L42.8989 40.7151L41.726 43.8389Z" fill="white"/>
<path d="M52.615 46.9293V43.5381H48.8993V46.9293H47.8906V39.5747H48.8993V42.6188H52.615V39.5747H53.6143V46.9293H52.615Z" fill="white"/>
<path d="M60.2009 46.9994L56.8043 43.1955V46.9244H55.8003V39.5698H56.8043V42.8766L59.8491 39.5698H61.1299L57.888 43.0267L61.3128 46.7649L60.2009 46.9994Z" fill="white"/>
</svg>
