<svg width="122" height="78" viewBox="0 0 122 78" fill="none" xmlns="http://www.w3.org/2000/svg">
<g clip-path="url(#clip0_24243_4673)">
<g clip-path="url(#clip1_24243_4673)">
<path fill-rule="evenodd" clip-rule="evenodd" d="M0.278198 52.6582H2.73801V56.9111L6.63023 52.6582H9.81394L5.18577 57.4755L10.0152 62.9729H6.69509L2.73801 58.2049V62.9729H0.278198L0.278198 52.6582ZM27.5971 55.2919L24.754 62.9729H21.9343L26.3795 52.6582H28.8149L33.2601 62.9729H30.4404L27.5971 55.2919ZM15.9319 55.2919L14.5147 59.1212H17.3495L15.9319 55.2919ZM13.8156 61.0093L13.0889 62.9729H10.2692L14.7143 52.6582H17.1498L21.5949 62.9729H18.7752L18.0483 61.0093H13.8156ZM39.4173 55.2919L38 59.1212H40.8348L39.4173 55.2919ZM37.301 61.0093L36.5743 62.9729H33.7546L38.1997 52.6582H40.6352L45.0803 62.9729H42.2606L41.5336 61.0093H37.301ZM46.9236 52.6582H49.4655V60.9849H52.8135V52.6582H55.3553V60.9849H58.7033V52.6582H61.2452V62.9727H46.9236V52.6582ZM83.9162 52.6582H86.458V62.9727H83.9162V56.4189L79.8276 62.9727H77.1655V52.6582H79.7073V59.663L83.9162 52.6582ZM67.0938 56.6873H71.3026V52.6582H73.8444V62.9727H71.3026V58.675H67.0938V62.9727H64.5519V52.6582H67.0938V56.6873ZM89.9255 52.6582H92.3853V56.9111L96.2775 52.6582H99.4612L94.833 57.4755L99.6624 62.9729H96.3424L92.3853 58.2049V62.9729H89.9255V52.6582ZM105.792 52.2324C108.984 52.2324 111.572 54.7325 111.572 57.8158C111.572 60.8982 108.984 63.3982 105.792 63.3982C102.602 63.3982 100.014 60.8982 100.014 57.8158C100.014 54.7325 102.602 52.2324 105.792 52.2324ZM105.793 54.5517C107.469 54.5517 108.827 56.0125 108.827 57.8156C108.827 59.6182 107.469 61.0793 105.793 61.0793C104.118 61.0793 102.759 59.6182 102.759 57.8156C102.759 56.0125 104.118 54.5517 105.793 54.5517ZM113.825 52.6582H119.121C120.525 52.6582 121.665 53.7765 121.665 55.1555C121.665 56.2856 120.898 57.2399 119.848 57.5475C121.091 57.8282 122.019 58.921 122.019 60.2256C122.019 61.7423 120.765 62.9727 119.219 62.9727H113.825V52.6582ZM118.301 58.7326C118.971 58.7324 119.514 59.2656 119.514 59.9223C119.514 60.5792 118.971 61.1122 118.301 61.112L116.367 61.1115V58.7334L118.301 58.7326ZM118.116 54.6457C118.707 54.6457 119.186 55.1156 119.186 55.6958C119.186 56.2758 118.706 56.7459 118.116 56.7459L116.367 56.7456V54.646L118.116 54.6457Z" fill="white"/>
<path fill-rule="evenodd" clip-rule="evenodd" d="M0.278198 65.6892H2.73801V69.9421L6.63023 65.6892H9.81394L5.18577 70.5065L10.0152 76.0039H6.69509L2.73801 71.2359V76.0039H0.278198L0.278198 65.6892ZM71.9762 69.7183H76.185V65.6892H78.7269V76.0037H76.185V71.706H71.9762V76.0037H69.4344V65.6892H71.9762V69.7183ZM59.378 65.6892H64.161C65.9743 65.6892 67.4452 67.1324 67.4452 68.9117C67.4452 70.6909 65.9741 72.1341 64.161 72.1341H61.9199V76.0037H59.378V65.6892ZM61.9199 67.677V70.1464L63.6519 70.1466C64.3471 70.1466 64.9108 69.5935 64.9108 68.9114C64.9108 68.2298 64.3469 67.6767 63.6519 67.6767L61.9199 67.677ZM56.4981 65.6892V67.677H51.8609V69.7183H56.2845V71.706H51.8609V73.8819H56.6655V76.0037H49.3191V65.6892H56.4981ZM36.6799 76.0037V65.6892H39.2217V74.0159H43.4305V65.6892H45.9724V74.0159H47.089V78.3395H44.8945V76.0037H36.6799ZM26.7448 69.7183H30.9536V65.6892H33.4954V76.0037H30.9536V71.706H26.7448V76.0037H24.2029V65.6892H26.7448V69.7183ZM16.1652 65.2637C19.3571 65.2637 21.9446 67.7637 21.9446 70.8471C21.9446 73.9294 19.3571 76.4295 16.1652 76.4295C12.9746 76.4295 10.3871 73.9294 10.3871 70.8471C10.3871 67.7637 12.9746 65.2637 16.1652 65.2637ZM16.1657 67.5829C17.8417 67.5829 19.1997 69.0437 19.1997 70.8468C19.1997 72.6495 17.8417 74.1105 16.1657 74.1105C14.4903 74.1105 13.132 72.6495 13.132 70.8468C13.132 69.0437 14.4903 67.5829 16.1657 67.5829Z" fill="white" fill-opacity="0.3"/>
<path fill-rule="evenodd" clip-rule="evenodd" d="M35.2477 7.87207H8.08105V34.5293H35.2477L21.6644 21.2007L35.2477 7.87207ZM29.9226 32.3532L18.5569 21.2007L29.9226 10.0482H10.2577V32.3532H29.9226Z" fill="white"/>
<path fill-rule="evenodd" clip-rule="evenodd" d="M0.278198 0.214844H43.0532L32.4152 10.6508H10.9136V31.7495H32.4152L43.0532 42.1849H0.278198V0.214844Z" fill="white"/>
</g>
</g>
<defs>
<clipPath id="clip0_24243_4673">
<rect width="122" height="78" fill="white"/>
</clipPath>
<clipPath id="clip1_24243_4673">
<rect width="121.895" height="78.3395" fill="white" transform="translate(0.278198)"/>
</clipPath>
</defs>
</svg>
