<svg width="119" height="32" fill="none" xmlns="http://www.w3.org/2000/svg"><path fill-rule="evenodd" clip-rule="evenodd" d="M0 .352h31.408V32H0V.352zM25.405 3.81c.273-.188.595-.293.925-.303a1.79 1.79 0 011.299.487 1.816 1.816 0 01.571 1.273 4.052 4.052 0 01-.126.813l-3.654 5.984a1.852 1.852 0 00-.15 1.641l5.532 14.227H7.152a3.568 3.568 0 01-2.558-1.086 3.625 3.625 0 01-1.026-2.6L3.493 5.418a1.86 1.86 0 01.458-1.4 1.83 1.83 0 011.33-.615 1.817 1.817 0 011.351.564 1.847 1.847 0 01.51 1.383v17.73a1.2 1.2 0 00.322.794c.202.215.476.347.768.37h16.613l-4.278-10.293a2.583 2.583 0 01-.201-1.084 4.836 4.836 0 01.473-1.739l3.95-6.56a1.74 1.74 0 01.616-.759zm-8.735-.16c.221-.09.459-.134.697-.127a1.707 1.707 0 011.286.52 1.737 1.737 0 01.488 1.308v12.8c0 2.93-2.163 4.876-4.82 4.876-2.588 0-4.756-1.948-4.756-4.876V5.35c0-2.424 3.56-2.424 3.56 0v12.694c0 1.69 2.458 1.842 2.458 0V5.35a1.766 1.766 0 01.498-1.305c.167-.172.368-.307.589-.397z" fill="#fff"/><path d="M37.56 4.064v8.381c0 2.091-.211 3.25-1.901 3.25a2.11 2.11 0 01-.844-.116v3.611a3.982 3.982 0 001.583.233c4.755 0 4.965-3.605 4.965-5.688V7.677h2.745V19.19h3.802V4.064H37.56zm11.608 0l5.177 10.933-1.902 4.185h4.122L62.7 4.064h-4.13l-2.219 6.396-2.616-6.396h-4.568zM63.862 19.19h3.804v-6.5l3.907 6.501h4.858l-5.374-7.79 5.28-7.314h-4.541l-4.13 6.382V4.064h-3.804V19.19z" fill="#fff"/><path d="M82.664 19.656c5.07 0 7.394-3.955 7.394-8.026 0-3.953-2.324-7.908-7.394-7.908-4.965 0-7.287 3.955-7.287 7.908 0 4.082 2.322 8.026 7.287 8.026zm0-3.605c-1.69 0-3.38-1.515-3.38-4.421 0-2.907 1.69-4.302 3.38-4.302 1.797 0 3.493 1.395 3.493 4.302 0 2.906-1.688 4.42-3.493 4.42zM91.96 4.063V19.19h3.69l5.279-9.072v9.072h3.7V4.063h-3.692l-5.287 9.08v-9.08h-3.69zm6.449-.812c1.585 0 3.168-.583 3.909-2.327L100.094 0a1.66 1.66 0 01-.614.95c-.31.234-.69.35-1.076.329a1.534 1.534 0 01-1.031-.34A1.557 1.557 0 0196.818 0l-2.216.93c.631 1.744 2.324 2.326 3.802 2.326m10.246.808v8.381c0 2.091-.212 3.25-1.902 3.25a2.132 2.132 0 01-.846-.116v3.611a3.999 3.999 0 001.585.233c4.753 0 4.965-3.605 4.965-5.688V7.677h2.746V19.19H119V4.064h-10.35zm-73.806 23.61h.538v-2.806h3.125v2.806h.537v-5.499h-.537v2.251h-3.128v-2.251h-.537v5.5m5.558-.001h2.932v-.441h-2.394v-2.417h2.3v-.436h-2.3v-1.76h2.394v-.445h-2.931v5.5zm6.46 0h.538v-.756h.223c1.762 0 2.493-1.054 2.493-2.167 0-1.29-.948-2.143-2.493-2.143h-.223v-.65h-.538v.661h-.215c-1.555 0-2.501.853-2.501 2.143 0 1.102.73 2.167 2.501 2.167h.215v.745zm.538-4.605c1.768.021 2.15.856 2.15 1.7 0 1.323-.871 1.667-2.15 1.713v-3.413zm-.538 3.413c-1.287-.046-2.149-.39-2.149-1.712 0-.845.387-1.68 2.15-1.701v3.413zm5.178 1.192h.515V22.62h1.451v-.444H50.59v.444h1.449v5.055zm2.598 0h.601l1.451-2.416h.462v2.416h.538v-5.499h-1.266c-1.652 0-1.88 1.105-1.88 1.593 0 .929.72 1.49 1.571 1.46l-1.477 2.446zm2.514-2.858h-.773c-.438 0-1.309-.054-1.309-1.102 0-1.049.922-1.084 1.36-1.084h.722v2.197m1.905 2.847h.538v-2.806h3.124v2.806h.538v-5.499h-.538v2.251H59.59v-2.251h-.537v5.5m4.978-.002h.538l.75-1.785h2.3l.751 1.785h.538l-2.448-5.64-2.429 5.64zm1.483-2.21l.943-2.251.981 2.25h-1.91m3.995 2.212h.602l1.453-2.416h.46v2.416h.537v-5.499h-1.258c-1.65 0-1.88 1.105-1.88 1.593a1.454 1.454 0 00.46 1.084 1.431 1.431 0 001.109.376l-1.483 2.446zm2.514-2.858h-.773c-.438 0-1.309-.054-1.309-1.102 0-1.049.922-1.084 1.36-1.084h.722v2.197m3.714 2.847h.538v-2.663l2.447 2.663h.699l-2.641-2.836 2.598-2.663h-.67l-2.447 2.565v-2.565h-.537v5.5m7.146.172c1.612 0 2.955-1.179 2.955-2.913 0-1.733-1.343-2.9-2.955-2.9a2.87 2.87 0 00-2.039.85 2.919 2.919 0 00-.844 2.056c0 .77.304 1.51.844 2.055a2.87 2.87 0 002.039.852zm0-.466a2.427 2.427 0 01-1.723-.72 2.467 2.467 0 010-3.475 2.427 2.427 0 013.446 0 2.469 2.469 0 010 3.475 2.43 2.43 0 01-1.723.72zm3.692.293h.516l.502-4.064 2.01 4.308 1.986-4.308.537 4.064h.484l-.753-5.716-2.254 4.914-2.284-4.914-.75 5.716m7.046-5.499v5.5h.537v-5.056h3.125v5.055h.537v-5.499h-4.2zm4.989 5.498h.537l.75-1.785h2.299l.753 1.785h.537l-2.458-5.64-2.418 5.64zm1.477-2.218l.941-2.251.967 2.25h-1.913m4.148 2.22h.538v-2.806h3.124v2.806h.538v-5.499h-.538v2.251h-3.127v-2.251h-.537v5.5m5.558-5.5v5.748l3.738-4.605v4.35h.537v-5.71l-3.737 4.567v-4.35h-.538zm5.482 5.499h.602l1.451-2.416h.459v2.416h.537v-5.499h-1.257c-1.652 0-1.881 1.105-1.881 1.593 0 .929.723 1.49 1.572 1.46l-1.483 2.446zm2.512-2.858h-.771c-.441 0-1.308-.054-1.308-1.102 0-1.049.921-1.084 1.359-1.084h.72v2.197" fill="#fff"/></svg>