<svg width="48" height="61" fill="none" xmlns="http://www.w3.org/2000/svg"><path d="M27.725 26.847a4.935 4.935 0 01-7.895-5.84 4.934 4.934 0 017.544-1.13 4.913 4.913 0 011.347 5.319 4.912 4.912 0 01-.996 1.651zM25.36 6.656c.398.393.779.804 1.14 1.232a19.564 19.564 0 012.91 4.7 14.97 14.97 0 003.548.244c.07-.006.139-.008.208-.007l.194-.022a13.506 13.506 0 008.494-4.055c.1-.1.2-.208.301-.308a22.258 22.258 0 00-1.412-1.562A23.617 23.617 0 009.97 4.679c7.248-3.51 12.272-1.09 15.39 1.977zM8.667 30.59c.143-.558.316-1.095.501-1.604a19.387 19.387 0 012.622-4.863 15.006 15.006 0 00-1.563-3.188c-.036-.057-.071-.114-.114-.18-.036-.05-.072-.1-.115-.157a13.547 13.547 0 00-7.763-5.331 8.701 8.701 0 00-.416-.1 25.201 25.201 0 00-.652 2.005 23.567 23.567 0 001.571 16.372 23.587 23.587 0 0011.898 11.363c-6.652-4.53-7.068-10.089-5.969-14.316zm29.136 2.509a16.44 16.44 0 01-1.645.372 19.32 19.32 0 01-5.526.166c-.776.9-1.442 1.888-1.986 2.944-.028.064-.064.121-.093.186a4.17 4.17 0 01-.078.173 13.494 13.494 0 00-.735 9.377c.035.135.078.272.121.415a25.678 25.678 0 002.057-.437 23.575 23.575 0 0013.4-9.545 23.552 23.552 0 003.889-15.98c-.58 8.023-5.189 11.157-9.404 12.329z" fill="#fff"/><path d="M9.969 4.679a22.29 22.29 0 00-7.792 9.628 14.1 14.1 0 0110.495 9.486c.652-.415 2.646-1.991 3.985-6.333 1.62-5.251 4.702-9.12 8.695-10.805.008 0-5.053-7.198-15.383-1.976zM26.184 42.47a14.046 14.046 0 013.692-9.5l.036-.05c-.48-.517-2.172-1.788-6.516-.795-5.355 1.225-11.268 1.081-14.723-1.534 0 0-3.714 7.981 5.978 14.307a22.3 22.3 0 0012.222 1.93 13.272 13.272 0 01-.689-4.359zm16.58-33.256a13.908 13.908 0 01-10.43 4.717 15.491 15.491 0 01-3.097-.322l-.05-.014c-.2.73-.365 2.801 2.588 5.982 3.735 4.033 6.567 9.216 6.035 13.515 0 0 8.767-.774 9.405-12.33a22.42 22.42 0 00-4.45-11.548zM3.387 54.082a11.17 11.17 0 011.85-.129 2.896 2.896 0 011.85.488 1.77 1.77 0 01.643 1.397 1.92 1.92 0 01-.56 1.43 2.82 2.82 0 01-1.962.637 2.89 2.89 0 01-.47-.027v2.163H3.387v-5.959zm1.35 2.752c.151.03.305.041.459.035.723 0 1.175-.365 1.175-.988 0-.56-.387-.889-1.067-.889-.19-.003-.38.014-.566.05v1.791zm9.818.129c0 1.984-1.203 3.188-2.973 3.188-1.79 0-2.844-1.354-2.844-3.081a2.93 2.93 0 012.945-3.167c1.859 0 2.872 1.39 2.872 3.06zm-4.37.086c0 1.182.559 2.02 1.469 2.02.924 0 1.455-.882 1.455-2.056 0-1.089-.524-2.02-1.462-2.02-.924 0-1.465.883-1.465 2.056h.003zm10.159 2.831a3.788 3.788 0 01-1.555.272c-2.092 0-3.166-1.311-3.166-3.031a3.082 3.082 0 013.302-3.21 3.655 3.655 0 011.494.265l-.286 1.088a3.006 3.006 0 00-1.144-.222 1.988 1.988 0 00.015 3.976c.388-.002.773-.07 1.14-.2l.2 1.061zm2.415-1.729l-.63 1.906h-.81l2.055-6.046h.939l2.063 6.046h-.831l-.643-1.906h-2.143zm1.977-.609l-.595-1.737c-.136-.394-.222-.752-.315-1.103h-.022c-.092.357-.186.723-.308 1.096l-.594 1.747 1.834-.003zm3.439-2.872h-1.842v-.667h4.475v.667h-1.846v5.38h-.786v-5.38h-.001zm8.682 2.293c0 2.078-1.268 3.188-2.808 3.188-1.598 0-2.716-1.24-2.716-3.067 0-1.92 1.196-3.173 2.808-3.173 1.65-.008 2.716 1.26 2.716 3.052zm-4.692.1c0 1.286.702 2.45 1.93 2.45 1.24 0 1.934-1.14 1.934-2.514 0-1.204-.63-2.458-1.93-2.458-1.282 0-1.934 1.197-1.934 2.522zm11.255.329c-.043-.845-.1-1.858-.093-2.607h-.029a38.91 38.91 0 01-.759 2.3l-1.067 2.93h-.595l-.975-2.88a28.578 28.578 0 01-.702-2.35h-.022a80.48 80.48 0 01-.114 2.672l-.165 2.593h-.745l.422-6.047h.996l1.032 2.923c.25.745.458 1.411.609 2.035h.028a21.18 21.18 0 01.638-2.035l1.072-2.923h.996l.38 6.047h-.757l-.15-2.658z" fill="#fff"/></svg>