<svg width="115" height="34" fill="none" xmlns="http://www.w3.org/2000/svg"><path d="M47.572 10.915a3.661 3.661 0 00-1.4-.788 5.917 5.917 0 00-1.78-.276h-4.357v13.732h2.858V18.58h1.656a4.745 4.745 0 001.774-.315 3.79 3.79 0 002.162-2.266 5.182 5.182 0 00.296-1.793 5.251 5.251 0 00-.329-1.97 3.586 3.586 0 00-.88-1.32zm-2.05 4.597c-.312.26-.706.4-1.11.394h-1.519v-3.395h1.498c.428-.025.85.111 1.183.38a1.628 1.628 0 01.42 1.275 1.67 1.67 0 01-.472 1.36v-.014zm13.121-4.348a3.941 3.941 0 00-1.36-1.004 4.601 4.601 0 00-1.971-.381 4.687 4.687 0 00-2.044.4 3.94 3.94 0 00-2.129 2.436 5.32 5.32 0 00-.236 1.55v4.88c-.004.6.078 1.197.243 1.773a4.07 4.07 0 00.795 1.51c.37.441.838.79 1.367 1.019.64.265 1.33.392 2.024.374a4.885 4.885 0 001.76-.309 3.893 3.893 0 001.387-.906c.395-.399.704-.875.907-1.399a4.93 4.93 0 00.328-1.839v-5.102a4.964 4.964 0 00-.27-1.596 4.222 4.222 0 00-.8-1.406zm-1.813 8.301a1.379 1.379 0 01-.447 1.084c-.288.26-.664.401-1.051.394a1.394 1.394 0 01-1.216-.512 2.186 2.186 0 01-.361-1.314v-5.07c0-.172.03-.342.085-.505a1.478 1.478 0 01.762-.867 1.64 1.64 0 01.73-.145c.249-.01.496.047.716.165.181.113.338.263.46.44.112.147.194.314.243.492.043.147.068.3.072.453l.007 5.385zm8.575-5.923c.053-.18.14-.346.256-.493a1.36 1.36 0 01.473-.374c.229-.104.478-.154.73-.145.245-.006.489.048.709.158.184.095.351.222.493.374.127.138.223.302.282.48.053.152.097.308.132.466l2.7-.808a4.723 4.723 0 00-.473-1.313 3.941 3.941 0 00-.867-1.09 4.119 4.119 0 00-1.314-.762 5.331 5.331 0 00-3.739.118 3.942 3.942 0 00-2.116 2.443 5.316 5.316 0 00-.236 1.55v4.9a6.284 6.284 0 00.243 1.772 4.15 4.15 0 00.801 1.51c.367.443.833.791 1.36 1.019.641.265 1.33.392 2.024.374a4.476 4.476 0 002.839-.906 3.94 3.94 0 001.459-2.502l-2.72-.788a1.571 1.571 0 01-1.577 1.438 1.314 1.314 0 01-1.197-.512 2.277 2.277 0 01-.341-1.314v-5.09c.002-.171.028-.341.079-.505zm11.117 0a1.47 1.47 0 01.256-.493c.128-.158.29-.286.473-.374.229-.104.478-.154.73-.145.245-.006.49.048.709.158.185.095.351.222.493.374.127.138.223.302.282.48.053.152.097.308.132.466l2.7-.808a4.72 4.72 0 00-.473-1.313 3.939 3.939 0 00-.867-1.09 4.12 4.12 0 00-1.281-.762 5.331 5.331 0 00-3.74.118 3.942 3.942 0 00-2.115 2.443 5.316 5.316 0 00-.236 1.55v4.9a6.284 6.284 0 00.243 1.772 4.15 4.15 0 00.769 1.51c.366.443.832.791 1.36 1.019a4.95 4.95 0 002.023.374 4.476 4.476 0 002.839-.926 3.94 3.94 0 001.459-2.502l-2.72-.788a1.57 1.57 0 01-1.577 1.438 1.314 1.314 0 01-1.197-.512 2.278 2.278 0 01-.341-1.314v-5.07c.002-.171.028-.341.079-.505zm8.496 10.041h7.983v-2.699h-5.125v-2.916h4.416v-2.62h-4.416V12.51h5.125V9.87h-7.983v13.712zm9.56-11.112h2.937v11.112h2.839V12.471h2.937v-2.6h-8.713v2.6zm17.84-2.601l-3.923 7.96h-.039V9.87h-2.839v13.713h2.681l3.824-7.467h.02v7.467H115V9.871h-2.582zM18.483 8.137L2.898 7.316A16.766 16.766 0 00.23 19.505L18.628 8.702a2.277 2.277 0 01-.145-.565zm4.12 1.057l10.743 10.18c.136-.87.204-1.748.204-2.628a16.663 16.663 0 00-3.069-9.654l-7.484.893c-.014.432-.15.852-.394 1.209zm-3.548.23L.696 21.514a16.8 16.8 0 007.925 9.851L19.403 9.693a2.12 2.12 0 01-.348-.269zm1.104.657l-9.764 22.165a16.842 16.842 0 0012.642.046l-2.431-22.145a2.054 2.054 0 01-.447-.066zm1.281-.053l3.444 21.39a16.82 16.82 0 007.97-9.943L21.979 9.772a1.97 1.97 0 01-.539.256zm-2.136-3.894L15.769 0A16.706 16.706 0 004.283 5.55l14.272 1.707c.13-.442.391-.833.749-1.123zm1.473-.512a2.268 2.268 0 012.043 1.392l6.4-1.517A16.725 16.725 0 0017.84 0l2.365 5.68a2.39 2.39 0 01.572-.058z" fill="#fff"/></svg>