<svg width="113" height="42" fill="none" xmlns="http://www.w3.org/2000/svg"><path d="M2.047 41.299c.022.01.055.022.078.034a.702.702 0 00.077.022c.297.093.605.142.915.145h16.185L8.701 30.832c-1.965 1.955-3.26 3.24-4.219 4.2-.848.85-1.427 1.428-1.964 1.977L1.39 38.138a2.013 2.013 0 00-.535 1.374 1.895 1.895 0 001.192 1.787z" fill="#fff" fill-opacity=".3"/><path d="M.84 39.523a1.993 1.993 0 01.536-1.375l1.128-1.128c.535-.547 1.116-1.128 1.964-1.977.96-.95 2.254-2.245 4.219-4.2.58-.57 1.217-1.207 1.909-1.9l.033-.033c3.178-3.162 7.701-7.675 14.343-14.288L10.406 0l-8.26 8.278c-2.463 2.466-2.13 4.077-2.13 7.395v22.7a3.135 3.135 0 002.031 2.926 1.914 1.914 0 01-1.205-1.776zm92.205-12.981h-2.433L87.71 29.48v-2.938h-2.054v8.099h2.054v-3.352l2.958 3.352h2.478l-3.818-4.345 3.717-3.754zm-65.128-3.329h-5.189v11.428h2.154v-3.977h3.035c2.578 0 4.274-1.319 4.274-3.72.002-2.413-1.694-3.731-4.274-3.731zm-.065 5.517h-2.97v-3.596h2.97c1.495 0 2.187.714 2.187 1.8 0 1.071-.692 1.796-2.187 1.796zm9.196-2.423c-2.221 0-4.42 1.441-4.42 4.279 0 2.837 2.199 4.278 4.42 4.278 2.222 0 4.42-1.441 4.42-4.278 0-2.838-2.198-4.279-4.42-4.279zm0 6.636a2.342 2.342 0 01-2.309-2.798 2.347 2.347 0 011.84-1.848 2.342 2.342 0 012.804 2.3 2.272 2.272 0 01-2.335 2.346zm9.666 0a2.134 2.134 0 01-2.154-2.346 2.159 2.159 0 011.514-2.252 2.154 2.154 0 012.516 1.012l1.763-1.017c-.592-1.25-1.864-2.022-3.616-2.022a4.158 4.158 0 00-4.253 4.279 4.116 4.116 0 002.596 3.993c.527.208 1.09.305 1.657.285a4.013 4.013 0 003.705-2.167l-1.696-.927a2.351 2.351 0 01-2.032 1.162zm21.865-1.821c-.1 1.24-.346 1.519-.77 1.519a1.951 1.951 0 01-.625-.09l.01 2.1c.238.058.482.084.727.078 1.741 0 2.4-1.128 2.556-3.53l.2-2.826H73v6.231h2.055v-8.073h-6.128l-.347 4.59zm-5.826-4.815a4.273 4.273 0 00-4.26 4.235 4.28 4.28 0 004.17 4.322 3.896 3.896 0 003.717-2.056l-1.63-.815a2.306 2.306 0 01-2.053 1.104 2.139 2.139 0 01-2.222-2.023h6.226v-.714a3.851 3.851 0 00-2.395-3.773 3.842 3.842 0 00-1.553-.28zm-2.243 3.206a2.282 2.282 0 012.187-1.63 1.966 1.966 0 012.098 1.63H60.51zm19.956-3.206a4.273 4.273 0 00-4.26 4.234 4.28 4.28 0 004.17 4.323 3.896 3.896 0 003.717-2.056l-1.63-.815a2.306 2.306 0 01-2.053 1.103 2.14 2.14 0 01-2.222-2.022h6.226v-.714a3.862 3.862 0 00-2.397-3.77 3.852 3.852 0 00-1.551-.283zm-2.254 3.206a2.281 2.281 0 012.187-1.631 1.965 1.965 0 012.098 1.631h-4.285zM51.067 28.34h2.411v6.3h2.054v-6.3h2.41v-1.798h-6.875v1.798z" fill="#fff"/><path d="M97.22 26.307c-2.222 0-4.42 1.441-4.42 4.279 0 2.837 2.198 4.278 4.42 4.278 2.221 0 4.42-1.441 4.42-4.278 0-2.838-2.199-4.279-4.42-4.279zm0 6.636a2.342 2.342 0 01-2.172-1.442 2.348 2.348 0 011.702-3.204 2.342 2.342 0 012.805 2.3 2.274 2.274 0 01-2.335 2.346zm12.589-6.401l-2.221 5.663-2.233-5.663h-2.689v8.076h1.953v-5.116l2.166 5.116h1.596l2.166-5.116v5.116h1.953v-8.076h-2.691z" fill="#fff"/></svg>