<svg width="133" height="60" viewBox="0 0 133 60" fill="none" xmlns="http://www.w3.org/2000/svg">
<path fill-rule="evenodd" clip-rule="evenodd" d="M41.3526 57.0913L43.214 47.5132C43.3545 46.7442 44.6189 46.8141 44.8647 47.4083L47.9554 55.3085L51.0461 47.4083C51.2919 46.8141 52.5563 46.7442 52.6968 47.5132L54.5231 57.0913C54.5933 57.4408 54.6987 57.7904 53.9611 57.9302C53.2587 58.105 53.1885 57.7554 53.1182 57.3709L51.7134 49.4708L48.6227 57.4758C48.3768 58.0351 47.4988 58.0351 47.253 57.4758L44.1623 49.4708L42.7574 57.3709C42.6872 57.7205 42.6169 58.07 41.9145 57.9302C41.2121 57.7904 41.2823 57.4408 41.3526 57.0913ZM86.0971 46.9189C89.1527 46.9189 91.6112 49.4008 91.6112 52.4421C91.6112 55.4833 89.1176 57.9302 86.0971 57.9302C83.0416 57.9302 80.548 55.4483 80.548 52.4421C80.548 49.4358 83.0416 46.9189 86.0971 46.9189ZM66.1482 57.301V48.492H64.041C63.6897 48.492 63.3385 48.492 63.3385 47.7579C63.3385 47.0588 63.6897 47.0588 64.041 47.0588H66.8507H75.3149C76.2632 47.0588 76.9656 47.4433 77.4924 47.9676C78.0544 48.6318 78.3353 49.5057 78.3353 50.3097C78.3353 51.1137 78.0192 52.0575 77.4573 52.7916C76.9305 53.4208 76.2281 53.8403 75.3149 53.8403H72.0135V57.301C72.0135 57.6506 72.0135 58.0001 71.2759 58.0001C70.5735 58.0001 70.5735 57.6506 70.5735 57.301V53.1062C70.5735 52.7567 70.9247 52.4071 71.2759 52.4071H75.35C75.7715 52.4071 76.1227 52.1974 76.3685 51.8827C76.7197 51.4633 76.9305 50.8341 76.9305 50.3097C76.9305 49.7854 76.7549 49.296 76.4388 48.9115C76.1929 48.5969 75.8417 48.457 75.35 48.457H67.6233V57.301C67.6233 57.6506 67.6233 58.0001 66.8858 58.0001C66.1482 58.0001 66.1482 57.6506 66.1482 57.301ZM61.6878 48.492H58.0703V51.5681H61.6527C62.0039 51.5681 62.3551 51.5681 62.3551 52.3022C62.3551 53.0014 62.0039 53.0014 61.6527 53.0014H58.0703V56.5669H61.6527C62.0039 56.5669 62.3551 56.5669 62.3551 57.301C62.3551 58.0001 62.0039 58.0001 61.6527 58.0001H57.3679C57.0167 58.0001 56.6304 57.6506 56.6304 57.301V47.7229C56.6304 47.3734 57.0167 47.0238 57.3679 47.0238H61.6527C62.0039 47.0238 62.3551 47.0238 62.3551 47.7229C62.3903 48.492 62.039 48.492 61.6878 48.492ZM86.0971 48.3522C83.8494 48.3522 81.9879 50.2048 81.9879 52.4421C81.9879 54.6793 83.8494 56.497 86.0971 56.497C88.3449 56.497 90.1712 54.6443 90.1712 52.4421C90.1712 50.2048 88.3449 48.3522 86.0971 48.3522Z" fill="white"/>
<path fill-rule="evenodd" clip-rule="evenodd" d="M81.0754 9.83022C84.7631 13.3608 87.0811 18.2547 87.0811 23.638C87.0811 32.6218 80.7241 40.2073 72.0492 42.5144L73.6296 44.4021H86.6596C91.1903 39.7529 94 33.4957 94 26.6442C94 15.3184 86.3787 5.63546 75.772 2L66.4649 31.2585L57.228 2C46.6213 5.63546 39 15.3184 39 26.6442C39 33.4607 41.7746 39.7179 46.3404 44.4021H59.3352L60.9508 42.5144H60.9157C52.2407 40.2073 45.8838 32.6218 45.8838 23.638C45.8838 18.2897 48.1667 13.3958 51.8895 9.83022C52.2407 9.41075 52.9432 9.20101 53.6456 9.30588C54.3129 9.4457 54.9802 9.90014 55.2963 10.9139L65.4815 43.1786C65.7976 43.2136 66.1488 43.2136 66.5 43.2136C66.8512 43.2136 67.1673 43.2136 67.5185 43.1786L77.7037 10.8789C77.9847 10.0749 78.5466 9.51562 79.2139 9.34084C79.811 9.20101 80.4783 9.34084 81.0754 9.83022Z" fill="white"/>
</svg>
