<svg width="133" height="60" viewBox="0 0 133 60" fill="none" xmlns="http://www.w3.org/2000/svg">
<mask id="mask0_8343_531" style="mask-type:luminance" maskUnits="userSpaceOnUse" x="2" y="21" width="129" height="18">
<path d="M131 21H2V39H131V21Z" fill="white"/>
</mask>
<g mask="url(#mask0_8343_531)">
<path d="M12.6841 21.3858V38.7173H9.79859V23.876H4.89105V38.7173H2V21.3858H12.6841Z" fill="white"/>
<path d="M16.3269 38.0321C15.4602 37.237 14.8315 36.2167 14.511 35.085C14.0414 33.5002 13.8234 31.8516 13.8648 30.1992C13.8248 28.5048 14.0426 26.8142 14.511 25.1853C14.829 24.0205 15.4566 22.9636 16.3269 22.1268C17.0898 21.474 18.0608 21.1152 19.0648 21.1152C20.0688 21.1152 21.0398 21.474 21.8027 22.1268C22.672 22.9536 23.2965 24.0042 23.6075 25.163C24.0728 26.7925 24.2906 28.4827 24.2537 30.177C24.2956 31.8385 24.0776 33.4964 23.6075 35.0906C23.2958 36.2219 22.6701 37.2418 21.8027 38.0321C21.0272 38.6623 20.0585 39.0062 19.0592 39.0062C18.0601 39.0062 17.0913 38.6623 16.3158 38.0321H16.3269ZM17.04 33.6533C17.1536 34.3959 17.4315 35.104 17.8533 35.7257C17.9857 35.9273 18.1647 36.0943 18.375 36.2126C18.5853 36.3308 18.8209 36.3969 19.062 36.4054C19.775 36.4054 20.3377 35.8873 20.7332 34.8399C21.2218 33.3435 21.4406 31.7722 21.3793 30.1992C21.3968 28.9936 21.3036 27.7889 21.1008 26.6003C20.9776 25.8273 20.6929 25.0888 20.2652 24.4332C20.1376 24.2211 19.9593 24.0439 19.7464 23.9176C19.5335 23.7912 19.2926 23.7195 19.0453 23.709C18.8024 23.7226 18.5666 23.7957 18.3587 23.922C18.1509 24.0483 17.9773 24.2239 17.8533 24.4332C17.4312 25.0957 17.1541 25.8399 17.04 26.6171C16.828 27.8027 16.731 29.0061 16.7503 30.2104C16.7315 31.3648 16.8286 32.5182 17.04 33.6533Z" fill="white"/>
<path d="M32.1805 21.3857V28.032H30.6542C30.0975 28.0553 29.5429 27.9505 29.0332 27.7256C28.6302 27.5136 28.322 27.1575 28.1697 26.7284C27.9647 26.1341 27.8721 25.5069 27.8968 24.8788V21.3857H25.0113V24.8788C24.9245 26.3903 25.3743 27.8839 26.2814 29.0961C27.1281 30.1174 28.3926 30.6281 30.0748 30.6281H32.1805V38.7172H35.0715V21.3857H32.1805Z" fill="white"/>
<path d="M45.9443 23.876H42.5463V38.7172H39.6719V23.876H36.2795V21.3857H45.9443V23.876Z" fill="white"/>
<path d="M50.0518 21.3846H52.3636C53.3135 21.3472 54.2539 21.5914 55.0656 22.0865C55.7799 22.567 56.3344 23.2498 56.6586 24.0475C57.0579 25.0359 57.3094 26.0777 57.4048 27.1395L58.7531 38.7161H55.8676L54.9259 30.6269H50.0518V38.7161H47.1665V21.3846H50.0518ZM50.0518 28.1367H54.6421L54.5082 27.1395C54.4576 26.4998 54.3266 25.869 54.1185 25.262C53.9711 24.8542 53.6854 24.5111 53.3107 24.2927C52.8246 24.062 52.2885 23.9567 51.7509 23.9863H50.0518V28.1367Z" fill="white"/>
<path d="M70.7166 21.3862C71.6795 21.3632 72.6295 21.6122 73.4576 22.1049C74.2693 22.6216 74.9013 23.3765 75.2679 24.2665C75.7303 25.3985 75.9505 26.615 75.9138 27.8375C75.9408 28.9976 75.7342 30.1514 75.3069 31.2302C74.988 32.0529 74.4778 32.788 73.8193 33.3751C73.3632 33.8022 72.7721 34.0564 72.1483 34.0937C71.827 34.1144 71.5047 34.0637 71.2055 33.9452C70.9059 33.8267 70.6362 33.6434 70.416 33.4085V38.7177H67.5305V21.3862H70.7166ZM70.5885 30.3834C70.6617 30.6927 70.8086 30.9795 71.0177 31.2191C71.0861 31.3016 71.1709 31.3689 71.2667 31.4169C71.3626 31.4648 71.4676 31.4923 71.5745 31.4977C71.8265 31.4836 72.0635 31.374 72.2374 31.1913C72.5033 30.9084 72.695 30.5638 72.7942 30.1885C72.9551 29.6121 73.0284 29.0149 73.0115 28.4169C73.0115 26.7976 72.815 25.6536 72.4214 24.9851C72.2552 24.6769 72.0066 24.4206 71.7041 24.2446C71.4011 24.0687 71.0557 23.9798 70.7055 23.9879H70.416V29.0018C70.4107 29.4681 70.469 29.9328 70.5885 30.3834Z" fill="white"/>
<path d="M79.128 38.0331C78.2594 37.2395 77.6303 36.2186 77.3119 35.086C76.8403 33.5016 76.6201 31.8529 76.6601 30.2002C76.6211 28.5055 76.8408 26.8147 77.3119 25.1863C77.6269 24.0202 78.2551 22.9626 79.128 22.1278C79.879 21.4602 80.8525 21.0985 81.8574 21.1138C82.8661 21.0971 83.8449 21.4565 84.6036 22.1222C85.4756 22.9544 86.1023 24.0106 86.4139 25.1751C86.8769 26.805 87.0932 28.4951 87.0546 30.1891C87.0946 31.8424 86.8802 33.4921 86.4197 35.0804C86.1056 36.2107 85.4804 37.23 84.6147 38.0219C83.8348 38.6735 82.8454 39.02 81.8294 38.9969C80.8429 39.0069 79.8852 38.6653 79.128 38.0331ZM79.8351 33.6542C79.9541 34.3955 80.2316 35.1024 80.6487 35.7267C80.7812 35.928 80.9604 36.0947 81.1705 36.2129C81.381 36.3311 81.6165 36.3974 81.8574 36.4063C82.5761 36.4063 83.133 35.8882 83.5285 34.8409C84.0078 33.3428 84.2168 31.7715 84.147 30.2002C84.1653 28.9943 84.0704 27.7893 83.8628 26.6013C83.7544 25.8331 83.489 25.0953 83.0829 24.4342C82.9634 24.2157 82.7876 24.0333 82.5732 23.9063C82.3588 23.7793 82.1146 23.7122 81.8656 23.7122C81.6165 23.7122 81.3723 23.7793 81.1579 23.9063C80.944 24.0333 80.7677 24.2157 80.6487 24.4342C80.2306 25.0987 79.9536 25.842 79.8351 26.618C79.6285 27.8043 79.5331 29.0073 79.5509 30.2113C79.5336 31.3655 79.629 32.5186 79.8351 33.6542Z" fill="white"/>
<path d="M89.0546 25.3066C89.7651 24.0097 90.8745 22.9763 92.2185 22.3595C93.787 21.6741 95.487 21.3413 97.1985 21.3846V23.9863C95.1483 23.9863 93.5774 24.5062 92.4859 25.5462C91.3717 26.5824 90.848 28.1367 90.848 30.198C90.848 32.2593 91.4049 33.6687 92.4801 34.6548C93.5553 35.6409 95.1372 36.1311 97.1985 36.1311V38.7328C94.2514 38.7328 91.9675 38.0197 90.3634 36.5935C88.7593 35.1673 87.9568 33.0448 87.9568 30.2147C87.8961 28.5116 88.2737 26.8215 89.0546 25.3066Z" fill="white"/>
<path d="M98.7749 25.3066C99.4854 24.0097 100.595 22.9763 101.939 22.3595C103.507 21.6741 105.207 21.3413 106.919 21.3846V23.9863C104.869 23.9863 103.298 24.5062 102.206 25.5462C101.092 26.5824 100.568 28.1367 100.568 30.198C100.568 32.2593 101.125 33.6687 102.2 34.6548C103.276 35.6409 104.858 36.1311 106.919 36.1311V38.7328C103.972 38.7328 101.688 38.0197 100.084 36.5935C98.4796 35.1673 97.6939 33.0281 97.6939 30.198C97.6308 28.502 98.0027 26.8181 98.7749 25.3066Z" fill="white"/>
<path d="M111.163 21.3853V27.5747L116.076 23.4354L118.951 21.0176V38.7335H116.076V26.9229L111.169 31.0621V38.7167H108.278V21.3853H111.163Z" fill="white"/>
<path d="M123.201 21.3853V27.5747L128.115 23.4354L130.989 21.0176V38.7335H128.103V26.9229L123.19 31.0621V38.7167H120.304V21.3853H123.201Z" fill="white"/>
</g>
</svg>
