<svg width="49" height="60" fill="none" xmlns="http://www.w3.org/2000/svg"><path d="M0 59.83v-9.22h4.29a2.944 2.944 0 012.177.821 2.977 2.977 0 01.915 2.151 2.99 2.99 0 01-.915 2.151 2.956 2.956 0 01-2.177.822H1.95v3.276H.001v-.001zm5.373-6.246a1.242 1.242 0 00-.838-1.187 1.223 1.223 0 00-.509-.058H1.951v2.489h2.074a1.231 1.231 0 001.243-.742 1.25 1.25 0 00.104-.503m2.738 2.901a3.404 3.404 0 01.994-2.518 3.366 3.366 0 012.511-.98c.924 0 1.81.37 2.464 1.027a3.514 3.514 0 010 4.955 3.475 3.475 0 01-2.464 1.027 3.345 3.345 0 01-2.518-.982 3.383 3.383 0 01-.987-2.528v-.001zm5.209 0a1.726 1.726 0 00-1.2-1.42 1.704 1.704 0 00-1.783.511 1.726 1.726 0 001.279 2.859 1.743 1.743 0 001.278-.598 1.764 1.764 0 00.426-1.351zm2.954 0a3.402 3.402 0 01.998-2.522 3.367 3.367 0 012.52-.975 3.083 3.083 0 012.625 1.204l-1.14 1.076a1.613 1.613 0 00-1.401-.72 1.931 1.931 0 00-1.28.615 1.952 1.952 0 000 2.653c.335.36.792.58 1.28.615a1.662 1.662 0 001.4-.72l1.143 1.065a3.064 3.064 0 01-2.626 1.216 3.346 3.346 0 01-2.525-.976 3.382 3.382 0 01-.992-2.53m9.055 3.345v-5.142h-1.854v-1.534h5.469v1.533h-1.856v5.143h-1.758zm4.29-3.346a3.415 3.415 0 01.973-2.488 3.38 3.38 0 012.461-1.01c1.979 0 3.327 1.494 3.327 3.678v.388h-4.935c.062.455.295.868.65 1.156.355.288.806.428 1.26.393a2.807 2.807 0 001.772-.664l.772 1.133a4.121 4.121 0 01-2.735.925 3.342 3.342 0 01-2.546-.965 3.38 3.38 0 01-1-2.545v-.001zm3.434-2.1a1.59 1.59 0 00-1.11.41 1.608 1.608 0 00-.525 1.067h3.27a1.554 1.554 0 00-.508-1.085 1.537 1.537 0 00-1.127-.393m8.701 5.447l-1.513-2.253-1.524 2.253H36.78l2.349-3.427-2.213-3.248h1.953l1.373 2.06 1.361-2.06h1.951l-2.225 3.248 2.377 3.427h-1.951zm-3.92-39.367V5.71H23.251L28.929 0h14.627v14.71l-5.72 5.753zm5.721 23.325H28.93l-5.68-5.71h14.584V23.345l5.72 5.753v14.69zM.015 14.71V0h14.627l5.678 5.71H5.738v14.75L.015 14.71zm0 14.387l5.717-5.755v14.732H20.32l-5.682 5.71H.015V29.098zM45.736.45v1.73h-.249V.45h-.55V.22h1.348v.23h-.549zm2.516 1.73V.558l-.666 1.621h-.07L46.851.557v1.621h-.247V.22h.38l.568 1.43.567-1.43h.381v1.957l-.248.005z" fill="#fff"/></svg>