<svg width="108" height="37" fill="none" xmlns="http://www.w3.org/2000/svg"><path d="M54.437 14.854c.002.437-.076.87-.231 1.277a3.02 3.02 0 01-.638 1.029c-.34.35-.752.624-1.208.802a4.836 4.836 0 01-1.754.273h-1.123v3.863h-1.317V11.726h2.497a6.29 6.29 0 011.501.153c.394.095.765.263 1.096.496.365.261.663.605.869 1.004.215.462.32.966.308 1.475zm-1.373.033a2.252 2.252 0 00-.178-.933 1.576 1.576 0 00-.537-.65 1.956 1.956 0 00-.729-.306 4.88 4.88 0 00-1.038-.09H49.49v4.148h.902c.435.01.87-.035 1.295-.137a1.71 1.71 0 00.819-.483c.188-.195.334-.427.426-.682a2.63 2.63 0 00.132-.867h0zm9.286.447l-4.01 9.259H57l1.331-2.822-2.707-6.438h1.355l2.035 5.008 2.026-5.008h1.31zm4.253 6.913a4.362 4.362 0 01-1.407-.216 2.918 2.918 0 01-1.1-.65 2.877 2.877 0 01-.71-1.099 4.343 4.343 0 01-.257-1.557 4.01 4.01 0 01.265-1.537 3.29 3.29 0 01.704-1.09 2.976 2.976 0 011.096-.682c.452-.163.93-.245 1.41-.24.4 0 .798.052 1.184.157.348.093.689.215 1.017.363v1.277h-.074a3.41 3.41 0 00-.343-.236 5.5 5.5 0 00-.51-.273 3.246 3.246 0 00-.616-.211 2.68 2.68 0 00-.682-.091 1.983 1.983 0 00-1.564.67 2.775 2.775 0 00-.591 1.89c-.04.671.162 1.334.57 1.868a1.966 1.966 0 001.585.67c.4.003.797-.076 1.166-.232.356-.145.687-.346.98-.595h.075v1.275a11.53 11.53 0 01-.467.19 3.78 3.78 0 01-.509.165c-.211.06-.405.1-.57.133-.216.04-.434.056-.652.05zm9.977-9.294h-4.566v9.144h-1.32V11.726h5.886v1.227zm5.448 9.145h-1.242v-5.046l-3.508 5.046h-1.132v-6.764h1.242V20.3l3.466-4.966h1.175v6.764zm8.78 1.619H89.64v-1.64h-4.906v1.64h-1.168v-2.59h.493a8.117 8.117 0 001.034-2.467c.278-1.087.414-2.205.405-3.326h4.567v5.79h.742v2.593zm-1.994-2.59v-4.84H86.68c-.047.936-.2 1.864-.455 2.765a7.501 7.501 0 01-.93 2.074h3.519zm7.37-5.731a2.39 2.39 0 011.998.92 3.21 3.21 0 01.716 2.22 3.902 3.902 0 01-.888 2.69 2.875 2.875 0 01-2.247 1.004 4.115 4.115 0 01-.98.008c-.286-.074-.576.054-.873-.107v2.458h-1.26v-9.255h1.254l2.279.062zm-2.28.974v4.587c.273.093.557.15.845.17.264.056.533.082.802.078a1.859 1.859 0 001.514-.65 2.9 2.9 0 00.542-1.896 2.48 2.48 0 00-.405-1.546 1.45 1.45 0 00-1.32-.64l-1.977-.102zm13.089 2.348a3.623 3.623 0 01-.906 2.636 3.214 3.214 0 01-2.416.93 3.173 3.173 0 01-2.445-.96 3.67 3.67 0 01-.887-2.606 3.625 3.625 0 01.918-2.636 3.585 3.585 0 014.832-.005c.639.726.964 1.676.904 2.64zm-1.295 0a3.032 3.032 0 00-.526-1.955 2.088 2.088 0 00-1.505-.636 2.103 2.103 0 00-1.506.636 3.002 3.002 0 00-.532 1.955 3.026 3.026 0 00.532 1.93 2.062 2.062 0 003.007.012c.394-.568.58-1.254.53-1.942z" fill="#fff" stroke="#fff" stroke-miterlimit="10"/><path d="M6.884 30.46l2.16-2.198S12.6 30.977 15 31.857c2.4.88 4.116 3.595 4.116 3.595s4.037.918-1.92 1.037c-5.956.12-9.232-2.793-9.232-2.793l-1.08-3.235zM3.528 17.685s-5.837-4.153-.199-8.347l5.394-3.314s.559 3.194 13.713 8.343 12.75 6.986 12.989 7.586c.24.599.438 3.194-1.716 5.909s-6.155 4.793-6.155 4.793.918-2.318-2.159-4.35c-3.077-2.034-9.712-5.03-11.909-5.988-2.196-.96-9.958-4.632-9.958-4.632zM18.474.125S25.59.324 28.625 3.28c3.036 2.954.079 2.836-.281 3.276-.36.44-1.998.72-1.998.72s-5.51-2.158-9.15-5.711C16.518.489 18.474.125 18.474.125z" fill="#fff" fill-opacity=".3"/><path d="M28.096 2.737S29.81 4.78 27.03 6.532C17.118 12.954 8.005 13.075.25 20.776c0 5.256 5.596 11.832 7.793 13.036 0 0-1.56-2.006 1.518-4.01 3.077-2.005 10.87-5.335 13.432-6.298 2.56-.963 8.351-3.57 9.832-4.733 1.48-1.163 2.317-1.524 3.197-3.45-.918-5.817-3.875-9.952-7.925-12.584zm6.972 22.733a41.496 41.496 0 01-10.275 6.705c-5.686 2.533-6.798 3.475-7.435 4.232.078.359.48.28.918.28a23.793 23.793 0 008.633-2.313 16.717 16.717 0 008.16-8.905zM19.115.006C17.557-.035 5.767-.192 1.13 11.786a29.556 29.556 0 018.754-6.388C15.24 3.001 20.674.047 19.115.006z" fill="#fff"/></svg>