<svg width="160" height="160" viewBox="0 0 160 160" fill="none" xmlns="http://www.w3.org/2000/svg">
<g clip-path="url(#clip0_2349_838)">
<path d="M76.7168 160H83.3792C119.546 160 137.632 160 148.864 148.768C160.096 137.536 160 119.456 160 83.3792V76.6208C160 40.5504 160 22.464 148.864 11.232C137.728 3.24249e-05 119.546 0 83.3792 0H76.7168C40.544 0 22.464 3.24249e-05 11.232 11.232C-6.67572e-06 22.464 0 40.5376 0 76.6208V83.3792C0 119.456 -6.67572e-06 137.536 11.232 148.768C22.464 160 40.544 160 76.7168 160Z" fill="#99A2AD"/>
<path d="M85.8566 115.359C49.7798 115.359 27.8854 90.3288 27.0342 48.7354H45.3062C45.8758 79.2889 59.7766 92.2552 70.4326 94.8984V48.7354H87.9494V75.0969C98.2278 73.9577 108.98 61.9641 112.602 48.7354H129.825C127.066 65.0105 115.361 77.0042 107.079 81.9514C115.361 85.9514 128.685 96.4216 133.825 115.359H114.887C110.887 102.7 101.082 92.8953 87.9494 91.5641V115.359H85.8566Z" fill="white"/>
</g>
<defs>
<clipPath id="clip0_2349_838">
<rect width="160" height="160" fill="white"/>
</clipPath>
</defs>
</svg>
