<svg width="80" height="29" fill="none" xmlns="http://www.w3.org/2000/svg"><path d="M23.172 3.775H4.12L5.493 0h19.052l-1.373 3.775zm-.686 1.89H3.433L2.06 9.437h19.053l1.373-3.774zm-2.06 5.664H1.373L0 15.1h19.053l1.373-3.772zM68.575 24.54h3.433a3.11 3.11 0 002.66-1.03 3.754 3.754 0 00.687-2.146 2.788 2.788 0 00-1.202-2.573 3.102 3.102 0 00-2.145-.515h-3.433v6.263zm-4.463 3.774V5.663h14.762l-1.288 3.775h-9.011V14.5h3.69c2.918 0 4.463.687 5.493 1.63a6.776 6.776 0 012.232 5.406 6.426 6.426 0 01-2.663 5.577c-1.46.944-2.918 1.287-5.922 1.287l-7.293-.085zm-13.045 0V9.438h-6.525V5.663h18.111l-1.288 3.775h-5.837v18.876h-4.461zM32.872 14.76h2.575a9.336 9.336 0 001.545-.086 2.502 2.502 0 001.716-2.573 2.26 2.26 0 00-1.716-2.489 5.84 5.84 0 00-1.717-.171h-2.403v5.32zm0 3.945v5.92h3.174a3.451 3.451 0 002.403-.687 2.72 2.72 0 00.944-2.317 3.337 3.337 0 00-.6-1.972c-.687-.86-1.46-1.03-2.919-1.03l-3.002.086zm7.295-2.402c.762.345 1.482.777 2.146 1.287a5.254 5.254 0 011.886 4.46c0 3.088-1.63 5.319-4.377 6.005a13.98 13.98 0 01-3.262.343h-8.153V5.663h7.295a15.538 15.538 0 013.433.343c2.66.687 4.377 2.489 4.377 5.406a4.913 4.913 0 01-1.459 3.69 14.1 14.1 0 01-1.888 1.2h.002z" fill="#fff"/></svg>